<?xml version="1.0" encoding="UTF-8" standalone="no"?>
<!DOCTYPE svg PUBLIC "-//W3C//DTD SVG 1.1//EN"
 "http://www.w3.org/Graphics/SVG/1.1/DTD/svg11.dtd">
<!-- Generated by graphviz version 2.40.1 (20161225.0304)
 -->
<!-- Title: dependencies Pages: 1 -->
<svg width="1006pt" height="284pt"
 viewBox="0.00 0.00 1006.00 284.00" xmlns="http://www.w3.org/2000/svg" xmlns:xlink="http://www.w3.org/1999/xlink">
<g id="graph0" class="graph" transform="scale(1 1) rotate(0) translate(4 280)">
<title>dependencies</title>
<polygon fill="#ffffff" stroke="transparent" points="-4,4 -4,-280 1002,-280 1002,4 -4,4"/>
<text text-anchor="start" x="478.0091" y="-42.4" font-family="sans-serif" font-weight="bold" font-size="14.00" fill="#000000">Legend</text>
<polygon fill="#ffffb3" stroke="transparent" points="265,-10 265,-30 285,-30 285,-10 265,-10"/>
<text text-anchor="start" x="288.629" y="-15.4" font-family="sans-serif" font-size="14.00" fill="#000000"> &#160;Declarations</text>
<polygon fill="#8dd3c7" stroke="transparent" points="378,-10 378,-30 398,-30 398,-10 378,-10"/>
<text text-anchor="start" x="401.7251" y="-15.4" font-family="sans-serif" font-size="14.00" fill="#000000"> &#160;Module</text>
<polygon fill="#80b1d3" stroke="transparent" points="464,-10 464,-30 484,-30 484,-10 464,-10"/>
<text text-anchor="start" x="487.7812" y="-15.4" font-family="sans-serif" font-size="14.00" fill="#000000"> &#160;Bootstrap</text>
<polygon fill="#fdb462" stroke="transparent" points="561,-10 561,-30 581,-30 581,-10 561,-10"/>
<text text-anchor="start" x="584.6732" y="-15.4" font-family="sans-serif" font-size="14.00" fill="#000000"> &#160;Providers</text>
<polygon fill="#fb8072" stroke="transparent" points="657,-10 657,-30 677,-30 677,-10 657,-10"/>
<text text-anchor="start" x="680.7258" y="-15.4" font-family="sans-serif" font-size="14.00" fill="#000000"> &#160;Exports</text>
<g id="clust1" class="cluster">
<title>cluster_HomeModule</title>
<polygon fill="none" stroke="#000000" stroke-dasharray="1,5" points="8,-70 8,-268 990,-268 990,-70 8,-70"/>
</g>
<g id="clust2" class="cluster">
<title>cluster_HomeModule_declarations</title>
<polygon fill="none" stroke="#000000" points="850,-78 850,-130 982,-130 982,-78 850,-78"/>
</g>
<g id="clust4" class="cluster">
<title>cluster_HomeModule_imports</title>
<polygon fill="none" stroke="#000000" points="16,-78 16,-130 842,-130 842,-78 16,-78"/>
</g>
<g id="clust5" class="cluster">
<title>cluster_HomeModule_exports</title>
<polygon fill="none" stroke="#000000" points="431,-208 431,-260 567,-260 567,-208 431,-208"/>
</g>
<!-- HomeComponent -->
<g id="node1" class="node">
<title>HomeComponent</title>
<polygon fill="#ffffb3" stroke="#000000" points="973.5451,-122 858.4549,-122 858.4549,-86 973.5451,-86 973.5451,-122"/>
<text text-anchor="middle" x="916" y="-99.8" font-family="Times,serif" font-size="14.00" fill="#000000">HomeComponent</text>
</g>
<!-- HomeModule -->
<g id="node2" class="node">
<title>HomeModule</title>
<polygon fill="#8dd3c7" stroke="#000000" points="545.7619,-187 542.7619,-191 521.7619,-191 518.7619,-187 452.2381,-187 452.2381,-151 545.7619,-151 545.7619,-187"/>
<text text-anchor="middle" x="499" y="-164.8" font-family="Times,serif" font-size="14.00" fill="#000000">HomeModule</text>
</g>
<!-- HomeComponent&#45;&gt;HomeModule -->
<g id="edge1" class="edge">
<title>HomeComponent&#45;&gt;HomeModule</title>
<path fill="none" stroke="#000000" d="M916,-122.2921C916,-144.2057 916,-178 916,-178 916,-178 556.0246,-178 556.0246,-178"/>
<polygon fill="#000000" stroke="#000000" points="556.0246,-174.5001 546.0246,-178 556.0246,-181.5001 556.0246,-174.5001"/>
</g>
<!-- HomeComponent  -->
<g id="node10" class="node">
<title>HomeComponent </title>
<polygon fill="#fb8072" stroke="#000000" points="558.5442,-252 439.4558,-252 439.4558,-216 558.5442,-216 558.5442,-252"/>
<text text-anchor="middle" x="499" y="-229.8" font-family="Times,serif" font-size="14.00" fill="#000000">HomeComponent </text>
</g>
<!-- HomeModule&#45;&gt;HomeComponent  -->
<g id="edge9" class="edge">
<title>HomeModule&#45;&gt;HomeComponent </title>
<path fill="none" stroke="#000000" stroke-dasharray="5,2" d="M499,-187.1061C499,-187.1061 499,-205.991 499,-205.991"/>
<polygon fill="#000000" stroke="#000000" points="495.5001,-205.9909 499,-215.991 502.5001,-205.991 495.5001,-205.9909"/>
</g>
<!-- BrowserModule -->
<g id="node3" class="node">
<title>BrowserModule</title>
<polygon fill="#8dd3c7" stroke="#000000" points="834.4734,-122 831.4734,-126 810.4734,-126 807.4734,-122 727.5266,-122 727.5266,-86 834.4734,-86 834.4734,-122"/>
<text text-anchor="middle" x="781" y="-99.8" font-family="Times,serif" font-size="14.00" fill="#000000">BrowserModule</text>
</g>
<!-- BrowserModule&#45;&gt;HomeModule -->
<g id="edge2" class="edge">
<title>BrowserModule&#45;&gt;HomeModule</title>
<path fill="none" stroke="#000000" d="M781,-122.1061C781,-141.3391 781,-169 781,-169 781,-169 555.8831,-169 555.8831,-169"/>
<polygon fill="#000000" stroke="#000000" points="555.8832,-165.5001 545.8831,-169 555.8831,-172.5001 555.8832,-165.5001"/>
</g>
<!-- FormsModule -->
<g id="node4" class="node">
<title>FormsModule</title>
<polygon fill="#8dd3c7" stroke="#000000" points="709.8288,-122 706.8288,-126 685.8288,-126 682.8288,-122 614.1712,-122 614.1712,-86 709.8288,-86 709.8288,-122"/>
<text text-anchor="middle" x="662" y="-99.8" font-family="Times,serif" font-size="14.00" fill="#000000">FormsModule</text>
</g>
<!-- FormsModule&#45;&gt;HomeModule -->
<g id="edge3" class="edge">
<title>FormsModule&#45;&gt;HomeModule</title>
<path fill="none" stroke="#000000" d="M662,-122.027C662,-138.3976 662,-160 662,-160 662,-160 556.1464,-160 556.1464,-160"/>
<polygon fill="#000000" stroke="#000000" points="556.1464,-156.5001 546.1464,-160 556.1463,-163.5001 556.1464,-156.5001"/>
</g>
<!-- HttpModule -->
<g id="node5" class="node">
<title>HttpModule</title>
<polygon fill="#8dd3c7" stroke="#000000" points="596.4387,-122 593.4387,-126 572.4387,-126 569.4387,-122 511.5613,-122 511.5613,-86 596.4387,-86 596.4387,-122"/>
<text text-anchor="middle" x="554" y="-99.8" font-family="Times,serif" font-size="14.00" fill="#000000">HttpModule</text>
</g>
<!-- HttpModule&#45;&gt;HomeModule -->
<g id="edge4" class="edge">
<title>HttpModule&#45;&gt;HomeModule</title>
<path fill="none" stroke="#000000" d="M528.831,-122.1061C528.831,-122.1061 528.831,-140.991 528.831,-140.991"/>
<polygon fill="#000000" stroke="#000000" points="525.3311,-140.9909 528.831,-150.991 532.3311,-140.991 525.3311,-140.9909"/>
</g>
<!-- HeaderModule -->
<g id="node6" class="node">
<title>HeaderModule</title>
<polygon fill="#8dd3c7" stroke="#000000" points="493.9608,-122 490.9608,-126 469.9608,-126 466.9608,-122 394.0392,-122 394.0392,-86 493.9608,-86 493.9608,-122"/>
<text text-anchor="middle" x="444" y="-99.8" font-family="Times,serif" font-size="14.00" fill="#000000">HeaderModule</text>
</g>
<!-- HeaderModule&#45;&gt;HomeModule -->
<g id="edge5" class="edge">
<title>HeaderModule&#45;&gt;HomeModule</title>
<path fill="none" stroke="#000000" d="M473.0498,-122.1061C473.0498,-122.1061 473.0498,-140.991 473.0498,-140.991"/>
<polygon fill="#000000" stroke="#000000" points="469.5499,-140.9909 473.0498,-150.991 476.5499,-140.991 469.5499,-140.9909"/>
</g>
<!-- ListModule -->
<g id="node7" class="node">
<title>ListModule</title>
<polygon fill="#8dd3c7" stroke="#000000" points="375.8289,-122 372.8289,-126 351.8289,-126 348.8289,-122 294.1711,-122 294.1711,-86 375.8289,-86 375.8289,-122"/>
<text text-anchor="middle" x="335" y="-99.8" font-family="Times,serif" font-size="14.00" fill="#000000">ListModule</text>
</g>
<!-- ListModule&#45;&gt;HomeModule -->
<g id="edge6" class="edge">
<title>ListModule&#45;&gt;HomeModule</title>
<path fill="none" stroke="#000000" d="M335,-122.027C335,-138.3976 335,-160 335,-160 335,-160 442.0042,-160 442.0042,-160"/>
<polygon fill="#000000" stroke="#000000" points="442.0042,-163.5001 452.0042,-160 442.0041,-156.5001 442.0042,-163.5001"/>
</g>
<!-- FooterModule -->
<g id="node8" class="node">
<title>FooterModule</title>
<polygon fill="#8dd3c7" stroke="#000000" points="276.0983,-122 273.0983,-126 252.0983,-126 249.0983,-122 179.9017,-122 179.9017,-86 276.0983,-86 276.0983,-122"/>
<text text-anchor="middle" x="228" y="-99.8" font-family="Times,serif" font-size="14.00" fill="#000000">FooterModule</text>
</g>
<!-- FooterModule&#45;&gt;HomeModule -->
<g id="edge7" class="edge">
<title>FooterModule&#45;&gt;HomeModule</title>
<path fill="none" stroke="#000000" d="M228,-122.1061C228,-141.3391 228,-169 228,-169 228,-169 442.1048,-169 442.1048,-169"/>
<polygon fill="#000000" stroke="#000000" points="442.1048,-172.5001 452.1048,-169 442.1048,-165.5001 442.1048,-172.5001"/>
</g>
<!-- HomeRoutingModule -->
<g id="node9" class="node">
<title>HomeRoutingModule</title>
<polygon fill="#8dd3c7" stroke="#000000" points="162.3795,-122 159.3795,-126 138.3795,-126 135.3795,-122 23.6205,-122 23.6205,-86 162.3795,-86 162.3795,-122"/>
<text text-anchor="middle" x="93" y="-99.8" font-family="Times,serif" font-size="14.00" fill="#000000">HomeRoutingModule</text>
</g>
<!-- HomeRoutingModule&#45;&gt;HomeModule -->
<g id="edge8" class="edge">
<title>HomeRoutingModule&#45;&gt;HomeModule</title>
<path fill="none" stroke="#000000" d="M93,-122.2921C93,-144.2057 93,-178 93,-178 93,-178 442.03,-178 442.03,-178"/>
<polygon fill="#000000" stroke="#000000" points="442.03,-181.5001 452.03,-178 442.03,-174.5001 442.03,-181.5001"/>
</g>
</g>
</svg>
