<?xml version="1.0" encoding="UTF-8" standalone="no"?>
<!DOCTYPE svg PUBLIC "-//W3C//DTD SVG 1.1//EN"
 "http://www.w3.org/Graphics/SVG/1.1/DTD/svg11.dtd">
<!-- Generated by graphviz version 2.40.1 (20161225.0304)
 -->
<!-- Title: dependencies Pages: 1 -->
<svg width="565pt" height="284pt"
 viewBox="0.00 0.00 565.00 284.00" xmlns="http://www.w3.org/2000/svg" xmlns:xlink="http://www.w3.org/1999/xlink">
<g id="graph0" class="graph" transform="scale(1 1) rotate(0) translate(4 280)">
<title>dependencies</title>
<polygon fill="#ffffff" stroke="transparent" points="-4,4 -4,-280 561,-280 561,4 -4,4"/>
<text text-anchor="start" x="257.5091" y="-42.4" font-family="sans-serif" font-weight="bold" font-size="14.00" fill="#000000">Legend</text>
<polygon fill="#ffffb3" stroke="transparent" points="44.5,-10 44.5,-30 64.5,-30 64.5,-10 44.5,-10"/>
<text text-anchor="start" x="68.129" y="-15.4" font-family="sans-serif" font-size="14.00" fill="#000000"> &#160;Declarations</text>
<polygon fill="#8dd3c7" stroke="transparent" points="157.5,-10 157.5,-30 177.5,-30 177.5,-10 157.5,-10"/>
<text text-anchor="start" x="181.2251" y="-15.4" font-family="sans-serif" font-size="14.00" fill="#000000"> &#160;Module</text>
<polygon fill="#80b1d3" stroke="transparent" points="243.5,-10 243.5,-30 263.5,-30 263.5,-10 243.5,-10"/>
<text text-anchor="start" x="267.2812" y="-15.4" font-family="sans-serif" font-size="14.00" fill="#000000"> &#160;Bootstrap</text>
<polygon fill="#fdb462" stroke="transparent" points="340.5,-10 340.5,-30 360.5,-30 360.5,-10 340.5,-10"/>
<text text-anchor="start" x="364.1732" y="-15.4" font-family="sans-serif" font-size="14.00" fill="#000000"> &#160;Providers</text>
<polygon fill="#fb8072" stroke="transparent" points="436.5,-10 436.5,-30 456.5,-30 456.5,-10 436.5,-10"/>
<text text-anchor="start" x="460.2258" y="-15.4" font-family="sans-serif" font-size="14.00" fill="#000000"> &#160;Exports</text>
<g id="clust1" class="cluster">
<title>cluster_TodoModule</title>
<polygon fill="none" stroke="#000000" stroke-dasharray="1,5" points="8,-70 8,-268 549,-268 549,-70 8,-70"/>
</g>
<g id="clust2" class="cluster">
<title>cluster_TodoModule_declarations</title>
<polygon fill="none" stroke="#000000" points="146,-78 146,-130 541,-130 541,-78 146,-78"/>
</g>
<g id="clust6" class="cluster">
<title>cluster_TodoModule_imports</title>
<polygon fill="none" stroke="#000000" points="16,-78 16,-130 138,-130 138,-78 16,-78"/>
</g>
<g id="clust7" class="cluster">
<title>cluster_TodoModule_exports</title>
<polygon fill="none" stroke="#000000" points="222,-208 222,-260 352,-260 352,-208 222,-208"/>
</g>
<!-- TodoComponent -->
<g id="node1" class="node">
<title>TodoComponent</title>
<polygon fill="#ffffb3" stroke="#000000" points="533.3851,-122 422.6149,-122 422.6149,-86 533.3851,-86 533.3851,-122"/>
<text text-anchor="middle" x="478" y="-99.8" font-family="Times,serif" font-size="14.00" fill="#000000">TodoComponent</text>
</g>
<!-- TodoModule -->
<g id="node4" class="node">
<title>TodoModule</title>
<polygon fill="#8dd3c7" stroke="#000000" points="331.6025,-187 328.6025,-191 307.6025,-191 304.6025,-187 242.3975,-187 242.3975,-151 331.6025,-151 331.6025,-187"/>
<text text-anchor="middle" x="287" y="-164.8" font-family="Times,serif" font-size="14.00" fill="#000000">TodoModule</text>
</g>
<!-- TodoComponent&#45;&gt;TodoModule -->
<g id="edge1" class="edge">
<title>TodoComponent&#45;&gt;TodoModule</title>
<path fill="none" stroke="#000000" d="M478,-122.1061C478,-141.3391 478,-169 478,-169 478,-169 341.781,-169 341.781,-169"/>
<polygon fill="#000000" stroke="#000000" points="341.781,-165.5001 331.781,-169 341.781,-172.5001 341.781,-165.5001"/>
</g>
<!-- FirstUpperPipe -->
<g id="node2" class="node">
<title>FirstUpperPipe</title>
<polygon fill="#ffffb3" stroke="#000000" points="404.5396,-122 303.4604,-122 303.4604,-86 404.5396,-86 404.5396,-122"/>
<text text-anchor="middle" x="354" y="-99.8" font-family="Times,serif" font-size="14.00" fill="#000000">FirstUpperPipe</text>
</g>
<!-- FirstUpperPipe&#45;&gt;TodoModule -->
<g id="edge2" class="edge">
<title>FirstUpperPipe&#45;&gt;TodoModule</title>
<path fill="none" stroke="#000000" d="M317.3909,-122.1061C317.3909,-122.1061 317.3909,-140.991 317.3909,-140.991"/>
<polygon fill="#000000" stroke="#000000" points="313.891,-140.9909 317.3909,-150.991 320.891,-140.991 313.891,-140.9909"/>
</g>
<!-- DoNothingDirective -->
<g id="node3" class="node">
<title>DoNothingDirective</title>
<polygon fill="#ffffb3" stroke="#000000" points="285.5772,-122 154.4228,-122 154.4228,-86 285.5772,-86 285.5772,-122"/>
<text text-anchor="middle" x="220" y="-99.8" font-family="Times,serif" font-size="14.00" fill="#000000">DoNothingDirective</text>
</g>
<!-- DoNothingDirective&#45;&gt;TodoModule -->
<g id="edge3" class="edge">
<title>DoNothingDirective&#45;&gt;TodoModule</title>
<path fill="none" stroke="#000000" d="M263.9937,-122.1061C263.9937,-122.1061 263.9937,-140.991 263.9937,-140.991"/>
<polygon fill="#000000" stroke="#000000" points="260.4938,-140.9909 263.9937,-150.991 267.4938,-140.991 260.4938,-140.9909"/>
</g>
<!-- TodoComponent  -->
<g id="node6" class="node">
<title>TodoComponent </title>
<polygon fill="#fb8072" stroke="#000000" points="344.3857,-252 229.6143,-252 229.6143,-216 344.3857,-216 344.3857,-252"/>
<text text-anchor="middle" x="287" y="-229.8" font-family="Times,serif" font-size="14.00" fill="#000000">TodoComponent </text>
</g>
<!-- TodoModule&#45;&gt;TodoComponent  -->
<g id="edge5" class="edge">
<title>TodoModule&#45;&gt;TodoComponent </title>
<path fill="none" stroke="#000000" stroke-dasharray="5,2" d="M287,-187.1061C287,-187.1061 287,-205.991 287,-205.991"/>
<polygon fill="#000000" stroke="#000000" points="283.5001,-205.9909 287,-215.991 290.5001,-205.991 283.5001,-205.9909"/>
</g>
<!-- BrowserModule -->
<g id="node5" class="node">
<title>BrowserModule</title>
<polygon fill="#8dd3c7" stroke="#000000" points="130.4734,-122 127.4734,-126 106.4734,-126 103.4734,-122 23.5266,-122 23.5266,-86 130.4734,-86 130.4734,-122"/>
<text text-anchor="middle" x="77" y="-99.8" font-family="Times,serif" font-size="14.00" fill="#000000">BrowserModule</text>
</g>
<!-- BrowserModule&#45;&gt;TodoModule -->
<g id="edge4" class="edge">
<title>BrowserModule&#45;&gt;TodoModule</title>
<path fill="none" stroke="#000000" d="M77,-122.1061C77,-141.3391 77,-169 77,-169 77,-169 232.2073,-169 232.2073,-169"/>
<polygon fill="#000000" stroke="#000000" points="232.2073,-172.5001 242.2073,-169 232.2073,-165.5001 232.2073,-172.5001"/>
</g>
</g>
</svg>
