<?xml version="1.0" encoding="UTF-8" standalone="no"?>
<!DOCTYPE svg PUBLIC "-//W3C//DTD SVG 1.1//EN"
 "http://www.w3.org/Graphics/SVG/1.1/DTD/svg11.dtd">
<!-- Generated by graphviz version 2.40.1 (20161225.0304)
 -->
<!-- Title: dependencies Pages: 1 -->
<svg width="565pt" height="284pt"
 viewBox="0.00 0.00 565.00 284.00" xmlns="http://www.w3.org/2000/svg" xmlns:xlink="http://www.w3.org/1999/xlink">
<g id="graph0" class="graph" transform="scale(1 1) rotate(0) translate(4 280)">
<title>dependencies</title>
<polygon fill="#ffffff" stroke="transparent" points="-4,4 -4,-280 561,-280 561,4 -4,4"/>
<text text-anchor="start" x="257.5091" y="-42.4" font-family="sans-serif" font-weight="bold" font-size="14.00" fill="#000000">Legend</text>
<polygon fill="#ffffb3" stroke="transparent" points="44.5,-10 44.5,-30 64.5,-30 64.5,-10 44.5,-10"/>
<text text-anchor="start" x="68.129" y="-15.4" font-family="sans-serif" font-size="14.00" fill="#000000"> &#160;Declarations</text>
<polygon fill="#8dd3c7" stroke="transparent" points="157.5,-10 157.5,-30 177.5,-30 177.5,-10 157.5,-10"/>
<text text-anchor="start" x="181.2251" y="-15.4" font-family="sans-serif" font-size="14.00" fill="#000000"> &#160;Module</text>
<polygon fill="#80b1d3" stroke="transparent" points="243.5,-10 243.5,-30 263.5,-30 263.5,-10 243.5,-10"/>
<text text-anchor="start" x="267.2812" y="-15.4" font-family="sans-serif" font-size="14.00" fill="#000000"> &#160;Bootstrap</text>
<polygon fill="#fdb462" stroke="transparent" points="340.5,-10 340.5,-30 360.5,-30 360.5,-10 340.5,-10"/>
<text text-anchor="start" x="364.1732" y="-15.4" font-family="sans-serif" font-size="14.00" fill="#000000"> &#160;Providers</text>
<polygon fill="#fb8072" stroke="transparent" points="436.5,-10 436.5,-30 456.5,-30 456.5,-10 436.5,-10"/>
<text text-anchor="start" x="460.2258" y="-15.4" font-family="sans-serif" font-size="14.00" fill="#000000"> &#160;Exports</text>
<g id="clust1" class="cluster">
<title>cluster_AboutRoutingModule</title>
<polygon fill="none" stroke="#000000" stroke-dasharray="1,5" points="8,-70 8,-268 549,-268 549,-70 8,-70"/>
</g>
<g id="clust2" class="cluster">
<title>cluster_AboutRoutingModule_declarations</title>
<polygon fill="none" stroke="#000000" points="222,-78 222,-130 541,-130 541,-78 222,-78"/>
</g>
<g id="clust5" class="cluster">
<title>cluster_AboutRoutingModule_imports</title>
<polygon fill="none" stroke="#000000" points="16,-78 16,-130 214,-130 214,-78 16,-78"/>
</g>
<g id="clust6" class="cluster">
<title>cluster_AboutRoutingModule_exports</title>
<polygon fill="none" stroke="#000000" points="242,-208 242,-260 360,-260 360,-208 242,-208"/>
</g>
<!-- TodoMVCComponent -->
<g id="node1" class="node">
<title>TodoMVCComponent</title>
<polygon fill="#ffffb3" stroke="#000000" points="533.273,-122 390.727,-122 390.727,-86 533.273,-86 533.273,-122"/>
<text text-anchor="middle" x="462" y="-99.8" font-family="Times,serif" font-size="14.00" fill="#000000">TodoMVCComponent</text>
</g>
<!-- AboutRoutingModule -->
<g id="node3" class="node">
<title>AboutRoutingModule</title>
<polygon fill="#8dd3c7" stroke="#000000" points="370.6652,-187 367.6652,-191 346.6652,-191 343.6652,-187 231.3348,-187 231.3348,-151 370.6652,-151 370.6652,-187"/>
<text text-anchor="middle" x="301" y="-164.8" font-family="Times,serif" font-size="14.00" fill="#000000">AboutRoutingModule</text>
</g>
<!-- TodoMVCComponent&#45;&gt;AboutRoutingModule -->
<g id="edge1" class="edge">
<title>TodoMVCComponent&#45;&gt;AboutRoutingModule</title>
<path fill="none" stroke="#000000" d="M462,-122.1061C462,-141.3391 462,-169 462,-169 462,-169 380.6806,-169 380.6806,-169"/>
<polygon fill="#000000" stroke="#000000" points="380.6806,-165.5001 370.6806,-169 380.6805,-172.5001 380.6806,-165.5001"/>
</g>
<!-- CompodocComponent -->
<g id="node2" class="node">
<title>CompodocComponent</title>
<polygon fill="#ffffb3" stroke="#000000" points="372.2744,-122 229.7256,-122 229.7256,-86 372.2744,-86 372.2744,-122"/>
<text text-anchor="middle" x="301" y="-99.8" font-family="Times,serif" font-size="14.00" fill="#000000">CompodocComponent</text>
</g>
<!-- CompodocComponent&#45;&gt;AboutRoutingModule -->
<g id="edge2" class="edge">
<title>CompodocComponent&#45;&gt;AboutRoutingModule</title>
<path fill="none" stroke="#000000" d="M301,-122.1061C301,-122.1061 301,-140.991 301,-140.991"/>
<polygon fill="#000000" stroke="#000000" points="297.5001,-140.9909 301,-150.991 304.5001,-140.991 297.5001,-140.9909"/>
</g>
<!-- RouterModule  -->
<g id="node5" class="node">
<title>RouterModule </title>
<polygon fill="#fb8072" stroke="#000000" points="351.6523,-252 250.3477,-252 250.3477,-216 351.6523,-216 351.6523,-252"/>
<text text-anchor="middle" x="301" y="-229.8" font-family="Times,serif" font-size="14.00" fill="#000000">RouterModule </text>
</g>
<!-- AboutRoutingModule&#45;&gt;RouterModule  -->
<g id="edge4" class="edge">
<title>AboutRoutingModule&#45;&gt;RouterModule </title>
<path fill="none" stroke="#000000" stroke-dasharray="5,2" d="M301,-187.1061C301,-187.1061 301,-205.991 301,-205.991"/>
<polygon fill="#000000" stroke="#000000" points="297.5001,-205.9909 301,-215.991 304.5001,-205.991 297.5001,-205.9909"/>
</g>
<!-- RouterModule.forChild(args) -->
<g id="node4" class="node">
<title>RouterModule.forChild(args)</title>
<polygon fill="#8dd3c7" stroke="#000000" points="205.7323,-122 202.7323,-126 181.7323,-126 178.7323,-122 24.2677,-122 24.2677,-86 205.7323,-86 205.7323,-122"/>
<text text-anchor="middle" x="115" y="-99.8" font-family="Times,serif" font-size="14.00" fill="#000000">RouterModule.forChild(args)</text>
</g>
<!-- RouterModule.forChild(args)&#45;&gt;AboutRoutingModule -->
<g id="edge3" class="edge">
<title>RouterModule.forChild(args)&#45;&gt;AboutRoutingModule</title>
<path fill="none" stroke="#000000" d="M115,-122.1061C115,-141.3391 115,-169 115,-169 115,-169 221.2113,-169 221.2113,-169"/>
<polygon fill="#000000" stroke="#000000" points="221.2113,-172.5001 231.2113,-169 221.2112,-165.5001 221.2113,-172.5001"/>
</g>
</g>
</svg>
